<svg xmlns="http://www.w3.org/2000/svg" fill="none" viewBox="0 0 24 24" height="48" width="48"><path stroke="#000000" stroke-linecap="round" stroke-linejoin="round" d="M11.9963 1.77101C9.50445 1.76866 7.09317 2.65376 5.19457 4.26771C3.29598 5.88167 2.03417 8.11897 1.63526 10.5787C1.23635 13.0385 1.72641 15.5599 3.01762 17.6911C4.30884 19.8224 6.31681 21.4242 8.68172 22.2095C9.20512 22.3007 9.37108 21.9934 9.37108 21.7162C9.37108 21.4654 9.37655 20.7706 9.37108 19.8925C6.45312 20.5253 5.85038 18.511 5.85038 18.511C5.658 17.8773 5.2453 17.3333 4.68684 16.9772C3.73486 16.3262 4.75797 16.3389 4.75797 16.3389C5.09035 16.3846 5.4079 16.5055 5.68637 16.6927C5.96483 16.8798 6.19684 17.1281 6.36467 17.4186C6.50664 17.6773 6.69849 17.9052 6.92913 18.0893C7.15977 18.2734 7.42461 18.4099 7.70835 18.491C7.99209 18.5721 8.28908 18.5961 8.58215 18.5616C8.87522 18.5272 9.15856 18.435 9.41576 18.2903C9.46414 17.7602 9.7002 17.2648 10.0814 16.8933C7.75344 16.6271 5.30509 15.728 5.30509 11.7085C5.29031 10.6665 5.67725 9.65879 6.38564 8.89448C6.06465 7.99036 6.10118 6.99776 6.48777 6.11968C6.48777 6.11968 7.36954 5.83792 9.37108 7.19568C11.0901 6.72396 12.9044 6.72396 14.6234 7.19568C16.6295 5.83883 17.504 6.11968 17.504 6.11968C17.8907 6.99764 17.9279 7.99006 17.6079 8.89448C18.3165 9.65928 18.7029 10.6679 18.6867 11.7103C18.6867 15.7408 16.2347 16.6262 13.8985 16.8842C14.1494 17.1364 14.3433 17.4394 14.4671 17.7729C14.5909 18.1064 14.6417 18.4626 14.6161 18.8174V21.7207C14.6161 22.0007 14.7857 22.3107 15.3183 22.2095C17.6838 21.424 19.6921 19.8216 20.9833 17.6896C22.2745 15.5576 22.764 13.0353 22.3642 10.5751C21.9643 8.11488 20.7012 5.87752 18.8012 4.26415C16.9013 2.65079 14.4889 1.76692 11.9963 1.77101V1.77101Z"></path></svg>