<svg xmlns="http://www.w3.org/2000/svg" fill="none" viewBox="0 0 24 24" height="48" width="48"><path stroke="#000000" stroke-linejoin="round" d="M18 6.5C17.7239 6.5 17.5 6.27614 17.5 6C17.5 5.72386 17.7239 5.5 18 5.5"></path><path stroke="#000000" stroke-linejoin="round" d="M18 6.5C18.2761 6.5 18.5 6.27614 18.5 6C18.5 5.72386 18.2761 5.5 18 5.5"></path><circle cx="12" cy="12" r="5" stroke="#000000" stroke-linejoin="round"></circle><path stroke="#000000" d="M16.5 1.5H7.5C4.18629 1.5 1.5 4.18629 1.5 7.5V16.5C1.5 19.8137 4.18629 22.5 7.5 22.5H16.5C19.8137 22.5 22.5 19.8137 22.5 16.5V7.5C22.5 4.18629 19.8137 1.5 16.5 1.5Z"></path></svg>